<svg xmlns="http://www.w3.org/2000/svg" xmlns:xlink="http://www.w3.org/1999/xlink" width="18" height="19" viewBox="0 0 18 19">
    <defs>
        <path id="prefix__a" d="M12.75 1.5h-1.5V.75c0-.45-.3-.75-.75-.75s-.75.3-.75.75v.75h-4.5V.75C5.25.3 4.95 0 4.5 0s-.75.3-.75.75v.75h-1.5C.975 1.5 0 2.475 0 3.75v10.5c0 1.275.975 2.25 2.25 2.25h10.5c1.275 0 2.25-.975 2.25-2.25V3.75c0-1.275-.975-2.25-2.25-2.25zM2.25 3h1.5v.75c0 .45.3.75.75.75s.75-.3.75-.75V3h4.5v.75c0 .45.3.75.75.75s.75-.3.75-.75V3h1.5c.45 0 .75.3.75.75V6h-12V3.75c0-.45.3-.75.75-.75zm10.5 12H2.25c-.45 0-.75-.3-.75-.75V7.5h12v6.75c0 .45-.3.75-.75.75z"/>
    </defs>
    <g fill="none" fill-rule="evenodd" transform="translate(1.5 .75)">
        <mask id="prefix__b" fill="#fff">
            <use xlink:href="#prefix__a"/>
        </mask>
        <use fill="#000" fill-rule="nonzero" xlink:href="#prefix__a"/>
        <g fill="#1D3DB4" mask="url(#prefix__b)">
            <path d="M0 0H18V18H0z" transform="translate(-2 -1)"/>
        </g>
    </g>
</svg>
