<svg xmlns="http://www.w3.org/2000/svg" width="49" height="30" viewBox="0 0 49 30">
    <g fill="none" fill-rule="evenodd">
        <g fill-rule="nonzero">
            <g>
                <g>
                    <path fill="#EC1F27" d="M24.023 28.981c-.08-.027-.164-.046-.248-.058-2.664-.137-5.301-.605-7.852-1.394-2.908-.929-5.557-2.339-7.807-4.45-2.188-2.073-3.837-4.657-4.802-7.524-.842-2.48-1.326-5.07-1.439-7.69-.013-.257-.032-.515-.05-.794H0v-.056l2.204-2.409.73-.796c-.019.434-.046.801-.05 1.161-.03 1.681.078 3.362.324 5.025.34 2.455 1.031 4.848 2.052 7.103 2.48 5.343 6.58 8.774 12.196 10.37 1.995.553 4.046.875 6.114.96.145 0 .29.034.435.044.145.009.265 0 .396 0v-.089c-.106-.025-.212-.05-.318-.072-3.74-.722-7.076-2.276-9.878-4.91-2.412-2.272-3.995-5.06-4.92-8.259-.598-2.03-.916-4.135-.946-6.253-.016-1.473.067-2.948.106-4.414 0-.041 0-.086.02-.179l2.474 2.628H9.53c0 .915-.028 1.795 0 2.673.078 2.583.571 5.136 1.461 7.56 1.132 3.02 2.89 5.6 5.523 7.51 1.905 1.377 4.089 2.31 6.394 2.734 4.016.76 8.029.748 12.01-.256 2.948-.704 5.665-2.17 7.883-4.253 1.75-1.631 3.1-3.652 3.94-5.903.269-.732.23-1.496.216-2.253-.03-2.703-.922-5.323-2.545-7.473-1.51-1.989-3.489-3.35-5.753-4.32-2.078-.86-4.264-1.423-6.496-1.676-1.694-.25-3.409-.335-5.12-.258-5.582.374-10.511 2.337-14.637 6.212-.57.537-1.086 1.134-1.631 1.698-.125.133-.23.365-.46.207-.173-.2-.203-.486-.076-.718.46-.51.895-1.038 1.38-1.51 3.12-3.005 6.97-5.126 11.163-6.149 1.491-.367 3.012-.6 4.544-.697.058-.01.115-.028.168-.053h3.48c.051.025.106.043.163.053 1.395.09 2.781.299 4.142.623 3.451.839 6.535 2.342 9.032 4.94 1.695 1.711 2.864 3.88 3.366 6.245.067.32.131.641.196.962v2.444c-.027.053-.048.109-.062.167-.221 1.659-.776 3.254-1.632 4.688-1.684 2.836-4.123 4.824-7.023 6.272-3.04 1.514-6.282 2.253-9.65 2.485-.304.021-.606.067-.907.102h-4.575z" transform="translate(-19 -31) translate(16 16) translate(3.5 15.76)"/>
                    <path fill="#0A379B" d="M21.269 27.732c-1.713-.147-3.394-.558-4.984-1.218-4.88-2.002-8.27-5.51-10.263-10.414-.858-2.173-1.42-4.454-1.67-6.78-.24-2.094-.31-4.204-.21-6.31-.004-.09.021-.18.071-.255.603-.625 1.215-1.238 1.841-1.872.539.68 1.063 1.335 1.576 2.002.048.097.06.208.035.314-.235 1.537-.337 3.091-.306 4.646.06 3.454.621 6.81 2.07 9.974 2.122 4.646 5.668 7.717 10.406 9.436.398.144.803.263 1.204.395.076.019.152.051.23.082zM36.357 11.429h1.319c.217-.013.419.116.499.32.175.355.186.77.03 1.134-.077.249-.316.409-.573.383-.69-.016-1.36 0-2.041 0-.136-.02-.268.057-.32.186-.651 1.224-1.314 2.444-1.972 3.666-.099.229-.294.401-.531.47-.238.069-.494.027-.698-.115-.508-.28-.644-.73-.37-1.238 2.132-3.99 4.266-7.978 6.401-11.965.29-.544.757-.765 1.218-.586.531.21.729.809.432 1.373-.437.836-.886 1.666-1.33 2.5-.03.055-.057.111-.092.18.741.368 1.15 1.016 1.494 1.73 1.1 2.265 2.206 4.525 3.32 6.78.168.339.214.653-.03.96-.242.33-.654.485-1.052.396-.246-.058-.447-.238-.533-.478-.993-2.037-1.99-4.073-2.992-6.11l-.75-1.547c-.101-.206-.253-.232-.357-.03-.338.634-.685 1.285-1.072 1.991zM26.722 12.879c.373.766.734 1.502 1.096 2.241.085.174.159.356.255.523.049.086.131.204.207.211.076.007.173-.107.23-.19.412-.753.817-1.513 1.225-2.27.955-1.778 1.911-3.553 2.867-5.326.216-.405.494-.553.893-.486.398.068.814.414.844.804.005.192-.042.383-.136.55-1.2 2.252-2.408 4.498-3.622 6.737-.2.387-.43.757-.69 1.106-.969 1.233-2.23.966-3.058.06-.277-.308-.509-.653-.69-1.027-1.13-2.276-2.237-4.567-3.362-6.85-.168-.34-.247-.66 0-.985.235-.324.632-.484 1.024-.413.25.037.462.208.554.446.46.929.92 1.858 1.358 2.787.052.148.198.238.352.218h3.12c.238-.009.468.086.631.26.164.175.245.412.223.651 0 .57-.331.93-.868.93l-2.453.023z" transform="translate(-19 -31) translate(16 16) translate(3.5 15.76)"/>
                    <path fill="#0A379B" d="M18.952 7.559c.75-.035 1.462.34 1.864.98.39.638.745 1.297 1.063 1.975.939 1.898 1.859 3.807 2.795 5.705.166.334.23.65-.013.962-.233.326-.63.488-1.022.418-.257-.044-.472-.22-.568-.465-.767-1.573-1.534-3.144-2.301-4.71-.46-.965-.94-1.929-1.413-2.89-.044-.089-.152-.219-.203-.207-.1.038-.182.113-.23.209-1.358 2.497-2.727 4.994-4.043 7.52-.391.75-1.19.605-1.57.173-.26-.26-.3-.671-.094-.978 1.204-2.239 2.403-4.48 3.622-6.713.277-.51.6-.992.967-1.44.278-.35.701-.55 1.146-.54zM31.84 24.832l.345-.05c.044.25.076.494.131.733.032.084.076.163.132.233.022-.076.033-.154.034-.233-.03-.246-.076-.492-.12-.755l.327-.072c.147.316.074.697.267.974l.108-.033c-.057-.32-.115-.639-.172-.968l.343-.084c.064.311.142.613.181.93.04.315-.175.464-.46.382-.127-.046-.269-.018-.368.075-.101.092-.245.12-.373.07-.128-.048-.217-.166-.232-.303-.062-.3-.095-.585-.143-.899zM41.548 20.484l.394.464c.018-.232 0-.436.32-.413l-.304-.383.27-.26c.073.079.14.153.21.232.038.035.086.081.13.081.186 0 .181 0 .16.177.004.052.025.102.06.141.142.163.131.408-.022.558-.12.14-.257.263-.41.365-.094.078-.218.11-.338.089-.12-.021-.226-.095-.288-.2-.152-.187-.297-.377-.46-.593l.278-.258zm.313.464c.161.098.274.212.391.219.083 0 .208-.121.251-.219.044-.097-.05-.178-.076-.257l-.566.257zM28.303 25.618c0-.158-.062-.388.016-.465.153-.084.326-.126.5-.12.037 0 .085.069.129.106-.051.035-.097.074-.15.105-.053.03-.127.065-.191.097.058.054.11.107.168.158.058.051.092.068.138.102l-.078.096c-.06.074-.122.146-.184.232.099.046.21.146.294.13.1-.04.174-.127.2-.232.015-.25.015-.5 0-.75l.366-.045v.932c-.055.29-.273.344-.515.355-.46.021-.707-.079-.739-.316.004-.13.027-.258.07-.38l-.024-.005zM39.597 21.736c.23-.079.27-.051.23.183-.001.04.012.079.037.11.053.074.12.139.17.216.13.19.251.385.39.601l-.328.216c-.129-.204-.262-.4-.38-.604-.09-.16-.193-.248-.374-.141-.182.107-.187.255-.049.422l.256-.216c.03.107.092.233.066.254-.23.18-.115.355 0 .562l-.329.202c-.112-.198-.214-.372-.31-.548-.247-.44-.196-.607.23-.88.134-.099.26-.209.377-.328v-.051l.014.002zM15.673 20.665l.287.144-.138-.281c.371-.137.785.02.976.37.176.277.112.645-.147.845-.26.218-.629.17-.942-.12-.312-.291-.31-.551-.036-.958zm.15.432c-.042.08-.046.175-.01.258.035.084.105.147.191.172.122.04.256.02.359-.058.11-.129.165-.295.154-.465-.085-.272-.34-.267-.626-.195l.336.31c-.136.285-.253-.015-.405-.015v-.007zM18.89 23.796c-.11-.153-.09-.365.043-.497.055-.085.104-.173.148-.264.064-.124.156-.254-.019-.36-.07-.049-.156-.064-.238-.043-.082.02-.151.076-.19.152-.124.178-.23.376-.35.59l-.336-.205.645-1.064c.206.171.44.306.69.398.285.1.33.33.191.61-.101.207-.21.412-.315.616-.017.022-.034.043-.053.063h-.214l-.002.004zM33.674 25.03l.626-.167c.189.29-.127.204-.262.357.13.062.269.098.411.107.114-.042.2-.137.23-.255.062-.207-.047-.426-.248-.5-.138-.007-.275.03-.391.107-.12.056-.23.153-.35.202.044-.423.354-.627.812-.594.316.03.559.297.562.617.001.35-.26.643-.605.676-.421.075-.633-.07-.785-.55zM14.727 20.728c.19-.214.35-.404.522-.583.173-.18.083-.26-.039-.372-.046-.06-.116-.094-.19-.094-.076 0-.146.034-.192.094-.17.167-.354.32-.564.509l-.276-.256.714-.601c-.044-.107 0-.182.177-.105.15.062.295.14.43.232.46.344.481.56.11.985-.124.147-.25.288-.393.449l-.3-.258zM38.548 22.863c-.097.339-.592 0-.69.464l.492-.109c.2-.046.414-.11.536.125.122.235-.025.426-.21.567-.345.267-.676.302-1.005.044.163-.025.324-.06.483-.102.151-.056.3-.12.444-.19l-.027-.112c-.072-.007-.145-.007-.217 0-.139.044-.282.073-.428.086-.12 0-.306-.072-.333-.155-.037-.145-.014-.299.064-.426.2-.292.59-.377.89-.192zM41.012 22.444l-.331.249-.375-.697v-.081c-.426-.188-.032-.33.041-.465.077-.114.18-.208.3-.274.324-.216.483-.186.72.123.14.181.278.365.432.57l-.304.246c-.151-.205-.308-.395-.446-.597-.11-.163-.23-.2-.387-.075-.069.04-.115.11-.126.19-.01.08.017.16.073.217.12.183.254.376.403.594zM19.925 22.872l.322.165c-.103.216-.195.416-.292.613-.07.142-.127.279.062.374.07.04.154.049.23.021.075-.027.135-.087.164-.163.11-.2.195-.413.296-.631l.33.15-.495 1.162-.378-.297c-.205.061-.426-.021-.543-.202-.079-.118-.107-.263-.078-.402.11-.272.238-.535.382-.79zM24.092 24.44l.34.093-.27 1.222-.392-.219c-.146.021-.294.021-.44 0-.11-.02-.207-.09-.263-.19-.057-.099-.067-.218-.029-.325.063-.26.15-.514.23-.792l.343.092c-.064.233-.126.465-.184.681-.037.14-.057.314.131.323.136-.003.262-.071.339-.184.088-.226.153-.461.195-.701zM30.239 26.168l-.41.128V25.03h.315c.016.2.02.402.05.602.009.1.05.194.118.267.07.064.173.079.258.036.085-.043.135-.134.126-.23 0-.231-.032-.464-.055-.73l.35-.026c.034.302.085.604.094.903.01.3-.31.465-.612.372-.084-.032-.166-.071-.244-.116l.01.06zM26.536 24.99l-.23.233c.248.232 0 .555.04.892l-.394-.037c.031-.153.049-.309.053-.465-.029-.11-.074-.217-.134-.314-.113.06-.271.096-.329.19-.065.16-.107.327-.127.498l-.354-.067.216-1.201.346.048-.051.44c.183-.111.372-.212.566-.303.109-.025.22-.033.331-.025l.067.111zM36.682 24.793l-.348.144c-.092-.232-.182-.465-.265-.697-.057-.158-.133-.26-.324-.188-.191.072-.246.177-.177.365s.152.45.23.697l-.387.146c-.055-.288-.106-.55-.154-.815 0-.017.016-.05 0-.052-.375-.283.048-.322.147-.415.132-.1.284-.167.445-.198.299-.079.414 0 .531.279.11.242.207.48.302.734zM17.191 21.378c.274.075.323.219.23.444-.055.151-.098.306-.128.465-.051.192.048.232.204.197.134-.044.237-.152.274-.289.037-.137.003-.283-.09-.39-.042-.077-.072-.16-.087-.248.27.01.502.2.568.465.034.27-.08.536-.299.697-.187.148-.45.148-.637 0-.354-.233-.36-.233-.23-.628.05-.246.122-.476.195-.713zM27.917 26.256l-.37-.023c.015-.26.025-.506.048-.752.018-.186-.058-.284-.23-.295-.074-.016-.151.003-.209.052-.057.05-.09.122-.086.198-.018.233-.044.479-.07.748l-.406-.041c.07-.284.133-.546.2-.809 0-.016.027-.03.027-.044.033-.267.051-.293.32-.318.146-.019.294-.019.44 0 .285.044.389.183.377.476-.016.265-.03.523-.041.808zM21.817 23.85c.48.202.07.676.262.982.23.059.403-.07.38-.369-.014-.179-.173-.348-.281-.55.246-.048.494.07.614.292.106.264.057.565-.126.78-.147.176-.388.237-.599.15-.264-.075-.43-.18-.372-.51.02-.248.02-.498 0-.747l.122-.028z" transform="translate(-19 -31) translate(16 16) translate(3.5 15.76)"/>
                    <path fill="#0A379B" d="M24.755 25.864l-.334-.084.327-1.459-.382-.13c.212-.16.502-.16.713 0 .055.046.086.115.083.186-.126.483-.264.969-.407 1.487zM43.886 20.022l-.322.309c-.182-.196-.364-.377-.527-.57-.122-.141-.218-.18-.345 0-.037.052-.122.072-.186.105l-.046-.058c.051-.106.109-.208.172-.307.23-.311.387-.32.656-.053.202.183.384.367.598.574zM36.46 23.615c.15-.11.31-.201.48-.274.116-.016.232.03.308.12.156.289.276.598.418.916l-.35.158c-.108-.25-.218-.48-.312-.72-.067-.167-.14-.253-.32-.118-.044.032-.127 0-.191.016l-.032-.098zM31.755 26.08l-.373.065-.143-1.224.346-.058.17 1.217zM21.271 23.5l.336.136c-.15.379-.294.748-.46 1.143l-.357-.14.481-1.14zM29.286 24.526l.216-.156v.418c-.069 0-.14.021-.21.021h-.936c.074-.232.074-.232.355-.204.15 0 .345.102.354-.232l.22.153zM39.6 21.734c-.066.004-.13.02-.192.044-.274.158-.543.323-.814.488l-.074-.08c.055-.084.119-.162.191-.232.168-.125.382-.18.437-.441.016-.079.23-.114.336-.17.023.11.046.219.074.328 0 .02.025.037.039.056l.002.007zM26.98 26.43c.138-.19.27-.15.391-.016.045.058.082.12.11.186l.157-.232h.375c-.09.172-.126.365-.23.404-.163.06-.34.06-.504 0-.126-.053-.198-.223-.299-.341zM32.963 23.97c.196.029.196.029.23.377l-1.15.232c-.033-.232.12-.232.246-.262s.386.04.41-.233l.252.028v-.132l.012-.01zM21.994 23.427c.419-.09.74.258 1.15.267l.019.102c-.06.028-.131.096-.18.082-.336-.105-.667-.233-1-.342l.01-.109zM26.384 24.368l.368-.077c.019.263-.135.31-.752.202l.101-.364.306.165-.023.074zM27.887 24.512l.366-.107c.025.25-.196.332-.757.253l.124-.37.285.161-.018.063zM18.885 23.792c.177.176.14.346-.037.534l-.301-.146c.154-.112-.148-.565.343-.384l-.005-.004z" transform="translate(-19 -31) translate(16 16) translate(3.5 15.76)"/>
                    <path fill="#0A379B" d="M32.968 23.968l-.311-.357.382-.098c.122.193.115.344-.076.465l.005-.01z" transform="translate(-19 -31) translate(16 16) translate(3.5 15.76)"/>
                </g>
            </g>
        </g>
    </g>
</svg>
