<?xml version="1.0" encoding="UTF-8"?>
<svg width="70px" height="44px" viewBox="0 0 70 44" version="1.1" xmlns="http://www.w3.org/2000/svg" xmlns:xlink="http://www.w3.org/1999/xlink">
    <!-- Generator: sketchtool 57.1 (101010) - https://sketch.com -->
    <title>C5900789-DC07-4A00-8A4D-EA482D6CA16C</title>
    <desc>Created with sketchtool.</desc>
    <defs>
        <linearGradient x1="0%" y1="69.755102%" x2="99.7528699%" y2="30.3425396%" id="linearGradient-1">
            <stop stop-color="#B9D9EB" offset="0%"></stop>
            <stop stop-color="#EBF9FD" offset="100%"></stop>
        </linearGradient>
        <path d="M4,0 L66,0 C68.209139,-4.05812251e-16 70,1.790861 70,4 L70,40 C70,42.209139 68.209139,44 66,44 L4,44 C1.790861,44 2.705415e-16,42.209139 0,40 L0,4 C-2.705415e-16,1.790861 1.790861,4.05812251e-16 4,0 Z" id="path-2"></path>
        <linearGradient x1="0%" y1="52.4029321%" x2="99.7528699%" y2="47.2086261%" id="linearGradient-4">
            <stop stop-color="#EBF9FD" offset="0%"></stop>
            <stop stop-color="#C0DDED" offset="100%"></stop>
        </linearGradient>
        <linearGradient x1="0%" y1="51.3829359%" x2="100%" y2="49.1485643%" id="linearGradient-5">
            <stop stop-color="#A5CCE2" offset="0%"></stop>
            <stop stop-color="#B8D7E9" offset="100%"></stop>
        </linearGradient>
    </defs>
    <g id="&gt;RMS" stroke="none" stroke-width="1" fill="none" fill-rule="evenodd">
        <g id="RMS-Register-with-Open-ID-01.02.01---Personal-info" transform="translate(-652.000000, -501.000000)">
            <g id="Form" transform="translate(255.000000, 254.000000)">
                <g id="back_IDcard" transform="translate(397.000000, 247.000000)">
                    <g id="Group">
                        <mask id="mask-3" fill="white">
                            <use xlink:href="#path-2"></use>
                        </mask>
                        <use id="Mask" fill="url(#linearGradient-1)" xlink:href="#path-2"></use>
                        <path d="M0,27.5165971 L70,27.5165971 L70,40.0971108 C70,42.3062498 68.209139,44.0971108 66,44.0971108 L4,44.0971108 C1.790861,44.0971108 2.705415e-16,42.3062498 0,40.0971108 L0,27.5165971 L0,27.5165971 Z" id="Mask" fill="url(#linearGradient-4)" mask="url(#mask-3)"></path>
                        <path d="M22.4681564,15.8749599 L22.45437,15.8749599 L22.3598759,15.8749599 C22.3831404,18.0403594 22.1958756,19.6970222 22.1958756,19.6970222 L22.0907545,19.9451439 L22.008898,20.2292927 L21.9971221,20.7737659 L21.8687365,20.9629078 L21.8451848,21.3417729 L21.6231668,21.7087257 L21.5062699,22.4420503 L21.2839647,22.6669288 C21.2839647,22.6669288 21.1903323,23.2587601 20.4539104,23.483348 C19.7172014,23.708517 19.4133268,22.9391654 19.4133268,22.9391654 L19.4251027,23.2587601 C19.6588965,23.743963 19.4483672,24.0632672 19.0508602,24.0632672 C18.6533532,24.0632672 18.0510613,23.3293615 18.0510613,23.3293615 C18.0510613,23.3293615 18.1731281,23.9755239 18.1613522,24.1292199 C18.1498636,24.2829159 17.9959158,24.3709497 17.9959158,24.3709497 L17.2034868,24.3709497 C16.3383922,24.3709497 15.7539076,24.0278212 15.7539076,24.0278212 C15.7886607,24.5484701 15.9994773,24.8326188 15.9994773,24.8326188 L12.7838068,24.8326188 C12.4563805,24.8326188 12.1812276,24.3349227 12.1812276,24.3349227 L12.1812276,25.6223083 L0,25.6223083 L0,27.5165971 L70,27.5165971 L70,25.6423557 L39.9403682,25.6423557 C39.7947497,25.2268825 39.3676595,24.8393013 39.3676595,24.8393013 C39.3676595,24.8393013 39.2053824,23.7826049 38.9735991,23.4066453 C38.7415286,23.0306857 38.6720223,21.6924554 38.6720223,21.6924554 C38.6254933,22.8194626 38.462929,23.3595777 38.3934228,23.4534224 C38.3239165,23.5475575 38.1380877,24.3459632 38.1380877,24.6513215 C38.1380877,24.9563892 37.9295689,24.9331459 37.9295689,24.9331459 L37.5116696,24.9331459 C36.9780222,23.4534224 36.3053623,22.5849963 36.3053623,22.5849963 C36.1195336,21.7863001 35.8877502,16.2918857 35.8877502,16.2918857 C35.8877502,16.2918857 35.8415085,21.8333677 35.4236092,22.5849963 C35.0059971,23.3360439 34.6811558,24.2282943 34.6811558,24.2282943 L34.2868082,24.2282943 C34.1245311,23.7355373 33.8462188,22.7023748 33.8462188,22.7023748 C33.7066318,22.2793476 33.5443548,19.2036842 33.5443548,19.2036842 C33.5210903,20.377759 33.4053422,22.2558138 33.2660425,22.7259085 C33.1267427,23.1954222 32.9412011,24.1812267 32.9412011,24.1812267 C32.361312,24.7684094 32.1987477,25.191146 32.1987477,25.191146 L31.2474883,25.191146 C31.015705,25.191146 30.2962289,24.2047605 30.5050349,24.5568958 C30.7138409,24.9096121 30.6443347,25.4256123 30.6443347,25.4256123 C30.6443347,26.1472159 29.6681059,26.1472159 29.6681059,26.1472159 C29.0839085,26.1472159 28.9236235,25.6112678 28.9236235,25.6112678 L28.9236235,24.8326188 C28.9236235,24.8326188 29.1338656,24.5484701 29.1691932,24.0278212 C29.1691932,24.0278212 28.5844214,24.3709497 27.7193268,24.3709497 L26.9257489,24.3709497 C26.9266106,24.3709497 26.77295,24.2829159 26.7611741,24.1292199 C26.7496855,23.9755239 26.8717523,23.3293615 26.8717523,23.3293615 C26.8717523,23.3293615 26.2694603,24.0632672 25.8716661,24.0632672 C25.4741592,24.0632672 25.2639171,23.743963 25.4977109,23.2587601 L25.5094867,22.9391654 C25.5094867,22.9391654 25.205325,23.708517 24.4686159,23.483348 C23.732194,23.2587601 23.6385616,22.6669288 23.6385616,22.6669288 L23.4165436,22.4420503 L23.2996467,21.7087257 L23.0773415,21.3417729 L23.054077,20.9629078 L22.9254043,20.7737659 L22.9139156,20.2292927 L22.8317718,19.9451439 L22.7266508,19.6970222 C22.7266508,19.6970222 22.5396731,18.0403594 22.5629376,15.8749599 L22.4681564,15.8749599 Z" id="Fill-4" fill="url(#linearGradient-5)" opacity="0.5" mask="url(#mask-3)" transform="translate(35.000000, 21.695778) scale(-1, 1) translate(-35.000000, -21.695778) "></path>
                        <g id="TH" mask="url(#mask-3)">
                            <g transform="translate(55.056180, 15.890851)">
                                <path d="M1.29674049e-13,5.29695024 L9.32168123,5.29695024 C9.32168123,5.88203521 8.84737615,6.35634029 8.26229118,6.35634029 L1.05939005,6.35634029 C0.47430508,6.35634029 1.29745702e-13,5.88203521 1.29674049e-13,5.29695024 L1.29674049e-13,5.29695024 L1.29674049e-13,5.29695024 Z" id="Rectangle-18-Copy-3" fill="#D0021B"></path>
                                <polygon id="Rectangle-18-Copy-6" fill="#FFFFFF" points="1.29674049e-13 1.05939005 9.32168123 1.05939005 9.32168123 2.1187801 1.29674049e-13 2.1187801"></polygon>
                                <polygon id="Rectangle-18-Copy-4" fill="#FFFFFF" points="1.29674049e-13 4.23756019 9.32168123 4.23756019 9.32168123 5.29695024 1.29674049e-13 5.29695024"></polygon>
                                <path d="M1.05939005,0 L8.26229118,0 C8.84737615,-5.51567575e-16 9.32168123,0.47430508 9.32168123,1.05939005 L9.32168123,1.05939005 L9.32168123,1.05939005 L1.29674049e-13,1.05939005 C1.29602397e-13,0.47430508 0.47430508,1.07478365e-16 1.05939005,0 Z" id="Rectangle-18-Copy-7" fill="#D0021B"></path>
                                <polygon id="Rectangle-18-Copy-5" fill="#2223A8" points="1.29674049e-13 2.1187801 9.32168123 2.1187801 9.32168123 4.23756019 1.29674049e-13 4.23756019"></polygon>
                            </g>
                        </g>
                        <rect id="Rectangle-8" fill="#E4BF35" opacity="0.400000006" mask="url(#mask-3)" x="7.86516854" y="15.0963082" width="8.65168539" height="7.15088283" rx="1"></rect>
                    </g>
                    <text id="JC9999999999" opacity="0.4" font-family="Kanit-Regular, Kanit" font-size="6" font-weight="normal" fill="#000000">
                        <tspan x="15" y="34">JC9999999999</tspan>
                    </text>
                    <rect id="Highlight" stroke="#EB1D27" x="11" y="26" width="50" height="12" rx="2"></rect>
                </g>
            </g>
        </g>
    </g>
</svg>