<?xml version="1.0" encoding="UTF-8"?>
<svg width="24px" height="24px" viewBox="0 0 24 24" version="1.1" xmlns="http://www.w3.org/2000/svg" xmlns:xlink="http://www.w3.org/1999/xlink">
    <!-- Generator: sketchtool 55.2 (78181) - https://sketchapp.com -->
    <title>D47AD79C-8512-435E-8759-9E3DB61176C2</title>
    <desc>Created with sketchtool.</desc>
    <g id="&gt;DSL---DMS" stroke="none" stroke-width="1" fill="none" fill-rule="evenodd">
        <g id="DSL-Mobile---Debt-Management-01.02.03---Payment-Method---QR-How-to" transform="translate(-136.000000, -398.000000)">
            <g id="Group-2" transform="translate(56.000000, 398.000000)">
                <g id="2" transform="translate(80.000000, 0.000000)">
                    <g id="cate-Copy-50" fill-rule="nonzero">
                        <circle id="Oval" fill="#FFFFFF" cx="12" cy="12" r="12"></circle>
                        <path d="M12,24 C5.372583,24 0,18.627417 0,12 C0,5.372583 5.372583,0 12,0 C18.627417,0 24,5.372583 24,12 C24,18.627417 18.627417,24 12,24 Z M12,23.55 C18.3788889,23.55 23.55,18.3788889 23.55,12 C23.55,5.62111114 18.3788889,0.45 12,0.45 C5.62111114,0.45 0.45,5.62111114 0.45,12 C0.45,18.3788889 5.62111114,23.55 12,23.55 Z" id="cate" fill="#F2F2F2"></path>
                    </g>
                    <circle id="Oval-2" fill="#130682" fill-rule="nonzero" cx="12" cy="12" r="12"></circle>
                    <path d="M15.2179919,15.3928693 C14.6083493,15.8775181 13.9660171,16.3123558 13.3298983,16.7839563 C13.3298983,16.7839563 12.9606125,17.0517558 12.810972,17.1566595 C12.7812855,17.1593865 12.7398971,17.1680853 12.722534,17.1406426 C12.7337182,16.5872317 12.5598452,15.9254997 12.9894015,15.5313256 C13.6143706,14.7967237 14.2749634,14.0915667 14.8190196,13.3091558 C14.8190196,13.3091558 15.3784023,12.5076213 15.6423012,12.118487 C15.7289097,12.1362988 15.7604257,12.2373019 15.770954,12.3037857 C16.0590853,13.3359081 16.1530119,14.363474 15.2179919,15.3928693 M11.9296292,15.0992495 L11.8768495,15.0700118 C11.0673065,14.1112426 10.1489592,13.0272034 9.3432479,12.0645681 C9.19747356,11.8204832 9.04893768,11.5860637 9.03226494,11.2716633 C9.02266862,11.0262322 9.00737664,10.8002699 9.21052179,10.4927043 C9.21052179,10.4927043 9.34462867,10.2977747 9.38301395,10.2404384 C9.38301395,10.2404384 11.0336849,7.91909508 11.9029114,6.81914258 L11.9289734,6.80402319 L11.9522738,6.81914258 C12.8214658,7.91885345 14.471688,10.2404384 14.471688,10.2404384 C14.5107637,10.2977747 14.6451122,10.4927043 14.6451122,10.4927043 C14.8476015,10.800477 14.832275,11.0262322 14.8215395,11.2716633 C14.8055226,11.5860637 14.6563309,11.8202761 14.5114541,12.0645681 C13.7053285,13.0272034 12.78743,14.1112426 11.9785429,15.0700118 L11.9296292,15.0992495 M11.1283018,17.1406426 C11.1102483,17.1680853 11.0688944,17.1593865 11.0391734,17.1566595 C10.8899817,17.0517558 10.52004,16.7839563 10.52004,16.7839563 C9.88412836,16.3125629 9.24272816,15.8775181 8.63308556,15.3928693 C7.69761678,14.3632323 7.79244086,13.3359081 8.07919139,12.3035441 C8.08947809,12.2370602 8.12033821,12.1362988 8.20829298,12.1182453 C8.47201924,12.5073796 9.03136744,13.3089487 9.03136744,13.3089487 C9.57566529,14.091325 10.2367069,14.7964821 10.8616415,15.5311185 C11.2907489,15.9252581 11.1173248,16.5872317 11.1283018,17.1406426 M16.9810571,12.3376145 C16.8535779,11.8554511 16.6691767,11.4985577 16.3716907,10.9533623 C16.2745538,10.7986475 16.1491113,10.6259137 16.0371657,10.4426516 C14.7436298,8.5246299 12.1914915,5.17734308 11.9579695,4.96232333 L11.9289734,4.95 L11.8981133,4.96232333 C11.665972,5.17710144 9.11317781,8.5246299 7.8191932,10.4426516 C7.70745473,10.6261554 7.58197765,10.7988891 7.4839778,10.9533623 C7.18690605,11.4985577 7.00319517,11.8554511 6.87502559,12.3376145 C6.71644464,13.0338311 6.7084362,13.8996057 6.85262266,14.6113905 C6.98286339,15.2361179 7.5764891,15.8743078 8.17356673,16.3509482 L9.08732297,17.0766441 C9.08732297,17.0766441 11.6412908,18.9181369 11.8784719,19.0344664 C11.8784719,19.0344664 11.9019794,19.05 11.9287317,19.05 C11.9547937,19.05 11.9774037,19.0344664 11.9774037,19.0344664 C12.2155168,18.9179298 14.7678277,17.0766441 14.7678277,17.0766441 L15.681584,16.3509482 C16.279352,15.8743078 16.8723218,15.2361179 17.0023209,14.6113905 C17.146749,13.8996402 17.1401213,13.0338311 16.9810571,12.3376145" id="Fill-1" fill="#FFFFFF"></path>
                </g>
            </g>
        </g>
    </g>
</svg>