<svg xmlns="http://www.w3.org/2000/svg" xmlns:xlink="http://www.w3.org/1999/xlink" width="18" height="18" viewBox="0 0 18 18">
    <defs>
        <linearGradient id="prefix__a" x1="0%" x2="98.36%" y1="49.851%" y2="50.144%">
            <stop offset="0%" stop-color="#1D3DB4"/>
            <stop offset="100%" stop-color="#131E62"/>
        </linearGradient>
        <path id="prefix__b" d="M8.25 0C3.675 0 0 3.675 0 8.25s3.675 8.25 8.25 8.25 8.25-3.675 8.25-8.25S12.825 0 8.25 0zm0 15C4.5 15 1.5 12 1.5 8.25s3-6.75 6.75-6.75S15 4.5 15 8.25 12 15 8.25 15zM9 8.25v3c0 .45-.3.75-.75.75s-.75-.3-.75-.75v-3c0-.45.3-.75.75-.75s.75.3.75.75zm-.225-3.525c.15.15.225.3.225.525 0 .225-.075.375-.225.525-.15.15-.3.225-.525.225H8.1c-.075 0-.075 0-.15-.075-.075 0-.075-.075-.15-.075s-.075-.075-.075-.075c-.15-.15-.225-.3-.225-.525 0-.225.075-.375.225-.525L7.8 4.65c.075 0 .075-.075.15-.075s.075 0 .15-.075c.225 0 .525.075.675.225z"/>
    </defs>
    <g fill="none" fill-rule="evenodd">
        <path fill="#F6F7FC" d="M0 0H1280V1976H0z" transform="translate(-179 -171)"/>
        <g transform="translate(-179 -171) translate(155 152)">
            <rect width="970" height="53" fill="url(#prefix__a)" rx="4"/>
            <g transform="translate(24.75 19.75)">
                <mask id="prefix__c" fill="#fff">
                    <use xlink:href="#prefix__b"/>
                </mask>
                <use fill="#000" fill-rule="nonzero" xlink:href="#prefix__b"/>
                <g fill="#FFF" mask="url(#prefix__c)">
                    <path d="M0 0H17.913V17.913H0z" transform="translate(-.75 -.75)"/>
                </g>
            </g>
        </g>
    </g>
</svg>
