<?xml version="1.0" encoding="UTF-8"?>
<svg width="24px" height="24px" viewBox="0 0 24 24" version="1.1" xmlns="http://www.w3.org/2000/svg" xmlns:xlink="http://www.w3.org/1999/xlink">
    <!-- Generator: sketchtool 57.1 (101010) - https://sketch.com -->
    <title>C396923D-55F3-4AF3-8549-CDBD29E1EE31</title>
    <desc>Created with sketchtool.</desc>
    <defs>
        <path d="M19,0 L3,0 C1.3,0 0,1.3 0,3 L0,15 C0,16.7 1.3,18 3,18 L19,18 C20.7,18 22,16.7 22,15 L22,3 C22,1.3 20.7,0 19,0 Z M3,2 L19,2 C19.4,2 19.7,2.2 19.9,2.6 L11,8.8 L2.1,2.6 C2.3,2.2 2.6,2 3,2 Z M19,16 L3,16 C2.4,16 2,15.6 2,15 L2,4.9 L10.4,10.8 C10.6,10.9 10.8,11 11,11 C11.2,11 11.4,10.9 11.6,10.8 L20,4.9 L20,15 C20,15.6 19.6,16 19,16 Z" id="path-1"></path>
    </defs>
    <g id="Symbols" stroke="none" stroke-width="1" fill="none" fill-rule="evenodd">
        <g id="Icon/FeatherIcon/ic-f-mail">
            <g id="icon-/-mail" transform="translate(1.000000, 3.000000)">
                <mask id="mask-2" fill="white">
                    <use xlink:href="#path-1"></use>
                </mask>
                <use id="Mask" fill="#000000" fill-rule="nonzero" xlink:href="#path-1"></use>
                <g id="Color/Fill/Grey-Darkest" mask="url(#mask-2)" fill="#30323A">
                    <g transform="translate(-1.000000, -3.000000)">
                        <rect x="0" y="0" width="24" height="24"></rect>
                    </g>
                </g>
            </g>
        </g>
    </g>
</svg>