<?xml version="1.0" encoding="UTF-8"?>
<svg width="18px" height="18px" viewBox="0 0 18 18" version="1.1" xmlns="http://www.w3.org/2000/svg" xmlns:xlink="http://www.w3.org/1999/xlink">
    <!-- Generator: sketchtool 57.1 (101010) - https://sketch.com -->
    <title>55E28717-9687-43F2-A3AD-61697253C865</title>
    <desc>Created with sketchtool.</desc>
    <defs>
        <path d="M15.8630137,10.6027397 C15.1232877,10.5205479 14.3835616,10.3561644 13.7260274,10.109589 C12.8219178,9.78082192 11.8356164,10.0273973 11.0958904,10.6849315 L10.5205479,11.260274 C9.04109589,10.2739726 7.7260274,9.04109589 6.73972603,7.47945205 L7.31506849,6.90410959 C7.97260274,6.24657534 8.21917808,5.17808219 7.89041096,4.2739726 C7.64383562,3.61643836 7.47945205,2.87671233 7.39726027,2.1369863 C7.23287671,0.904109589 6.16438356,0 4.93150685,0 C4.93150685,0 4.93150685,0 4.93150685,0 L2.46575342,0 C2.38356164,0 2.30136986,0 2.21917808,0 C1.56164384,0.0821917808 0.98630137,0.410958904 0.575342466,0.904109589 C0.164383562,1.39726027 0,2.05479452 0,2.71232877 C0.246575342,5.34246575 1.23287671,7.97260274 2.63013699,10.1917808 C3.94520548,12.2465753 5.75342466,14.0547945 7.80821918,15.369863 C10.0273973,16.8493151 12.6575342,17.7534247 15.2876712,18 C15.369863,18 15.4520548,18 15.5342466,18 C15.5342466,18 15.5342466,18 15.5342466,18 C16.1917808,18 16.8493151,17.7534247 17.260274,17.260274 C17.6712329,16.7671233 18,16.1917808 18,15.5342466 L18,13.0684932 C18,11.8356164 17.0958904,10.7671233 15.8630137,10.6027397 Z M16.3561644,13.0684932 L16.3561644,15.5342466 C16.3561644,15.7808219 16.2739726,15.9452055 16.109589,16.109589 C15.9452055,16.2739726 15.7808219,16.3561644 15.4520548,16.3561644 C13.0684932,16.109589 10.7671233,15.2876712 8.71232877,13.9726027 C6.82191781,12.8219178 5.26027397,11.1780822 4.02739726,9.28767123 C2.71232877,7.23287671 1.89041096,4.93150685 1.64383562,2.54794521 C1.64383562,2.30136986 1.7260274,2.1369863 1.80821918,1.97260274 C1.97260274,1.80821918 2.21917808,1.64383562 2.46575342,1.64383562 L4.93150685,1.64383562 C4.93150685,1.64383562 4.93150685,1.64383562 4.93150685,1.64383562 C5.34246575,1.64383562 5.67123288,1.97260274 5.75342466,2.38356164 C5.83561644,3.20547945 6.08219178,4.10958904 6.4109589,4.84931507 C6.49315068,5.17808219 6.4109589,5.50684932 6.24657534,5.75342466 L5.17808219,6.73972603 C4.93150685,6.98630137 4.84931507,7.39726027 5.01369863,7.7260274 C6.24657534,9.94520548 8.05479452,11.7534247 10.2739726,12.9863014 C10.6027397,13.1506849 11.0136986,13.1506849 11.260274,12.8219178 L12.3287671,11.7534247 C12.5753425,11.5068493 12.9041096,11.4246575 13.2328767,11.5890411 C14.0547945,11.9178082 14.8767123,12.0821918 15.6986301,12.2465753 C16.0273973,12.3287671 16.3561644,12.6575342 16.3561644,13.0684932 C16.3561644,13.0684932 16.3561644,13.0684932 16.3561644,13.0684932 Z" id="path-1"></path>
    </defs>
    <g id="Symbols" stroke="none" stroke-width="1" fill="none" fill-rule="evenodd">
        <g id="Footer/mobile-footer" transform="translate(-15.000000, -268.000000)">
            <g id="Icon/FeatherIcon/ic-f-phone">
                <g transform="translate(15.000000, 268.000000)">
                    <g id="icon-/-phone">
                        <mask id="mask-2" fill="white">
                            <use xlink:href="#path-1"></use>
                        </mask>
                        <use id="Mask" fill="#000000" fill-rule="nonzero" xlink:href="#path-1"></use>
                        <g id="Color/Fill/BluePrimary-Lighter" mask="url(#mask-2)" fill="#000000">
                            <rect x="0" y="0" width="18" height="18"></rect>
                        </g>
                    </g>
                </g>
            </g>
        </g>
    </g>
</svg>