<?xml version="1.0" encoding="UTF-8"?>
<svg width="24px" height="24px" viewBox="0 0 24 24" version="1.1" xmlns="http://www.w3.org/2000/svg" xmlns:xlink="http://www.w3.org/1999/xlink">
    <!-- Generator: sketchtool 55.2 (78181) - https://sketchapp.com -->
    <title>7BBBBFC6-4168-4990-AD1F-33E3A910BF8E</title>
    <desc>Created with sketchtool.</desc>
    <defs>
        <polygon id="path-1" points="0 0.208833488 3.44628837 0.208833488 3.44628837 7.14862884 0 7.14862884"></polygon>
        <polygon id="path-3" points="0.0619869767 0.208900465 3.50824186 0.208900465 3.50824186 7.1470214 0.0619869767 7.1470214"></polygon>
    </defs>
    <g id="&gt;DSL---DMS" stroke="none" stroke-width="1" fill="none" fill-rule="evenodd">
        <g id="DSL-Mobile---Debt-Management-01.02.03---Payment-Method---QR-How-to" transform="translate(-176.000000, -398.000000)">
            <g id="Group-2" transform="translate(56.000000, 398.000000)">
                <g id="25" transform="translate(120.000000, 0.000000)">
                    <g id="cate-Copy-65" fill-rule="nonzero">
                        <circle id="Oval" fill="#FFFFFF" cx="12" cy="12" r="12"></circle>
                        <path d="M12,24 C5.372583,24 0,18.627417 0,12 C0,5.372583 5.372583,0 12,0 C18.627417,0 24,5.372583 24,12 C24,18.627417 18.627417,24 12,24 Z M12,23.55 C18.3788889,23.55 23.55,18.3788889 23.55,12 C23.55,5.62111114 18.3788889,0.45 12,0.45 C5.62111114,0.45 0.45,5.62111114 0.45,12 C0.45,18.3788889 5.62111114,23.55 12,23.55 Z" id="cate" fill="#F2F2F2"></path>
                    </g>
                    <circle id="Oval-2" fill="#6C5E5E" fill-rule="nonzero" cx="12" cy="12" r="12"></circle>
                    <g id="Page-1" transform="translate(4.800000, 4.800000)">
                        <path d="M3.89416186,0.761994419 C4.83284093,0.28779907 5.87600372,0.0245804651 6.9275386,0.000133953488 C6.9339014,0.910682791 6.85888744,1.82156651 6.74603163,2.72575256 C6.58729674,3.9243014 6.34685023,5.11983628 5.91685953,6.25274791 C5.81371535,6.50960372 5.71425488,6.77114791 5.57527814,7.01326884 C5.20556651,6.59968744 4.92761302,6.11243163 4.69386419,5.61178047 C4.08370605,4.2843014 3.83187349,2.81416186 3.80407814,1.36043163 C3.80575256,1.17892465 3.79101767,0.995743256 3.81077581,0.815910698 C3.83689674,0.794813023 3.86636651,0.778403721 3.89416186,0.761994419" id="Fill-1" fill="#FCD802"></path>
                        <path d="M7.2953414,0 C8.10308093,0.0180837209 8.90445767,0.17815814 9.65995535,0.46615814 C9.91480186,0.57064186 10.1796949,0.668762791 10.4121042,0.817451163 C10.4382251,1.34589767 10.4087553,1.87702326 10.3595274,2.40379535 C10.2352856,3.64956279 9.92786233,4.88930233 9.33612279,5.99776744 C9.14322977,6.35910698 8.92086698,6.70571163 8.64927628,7.01313488 C8.39744372,6.55534884 8.22732279,6.05670698 8.06724837,5.56107907 C7.64864372,4.18772093 7.44235535,2.76011163 7.34122047,1.33116279 C7.3117507,0.887776744 7.28864372,0.444725581 7.2953414,0" id="Fill-3" fill="#FCD802"></path>
                        <g id="Group-7" transform="translate(0.000000, 0.817987)">
                            <mask id="mask-2" fill="white">
                                <use xlink:href="#path-1"></use>
                            </mask>
                            <g id="Clip-6"></g>
                            <path d="M3.28587907,0.295568372 C3.33644651,0.264424186 3.39036279,0.236628837 3.44628837,0.208833488 C3.44293953,1.08522419 3.34816744,1.9632893 3.15661395,2.81858233 C2.94563721,3.74085209 2.61544186,4.64838698 2.0839814,5.43670326 C1.58701395,6.18215442 0.888781395,6.80503814 0.0579348837,7.14862884 C-0.151367442,5.57065674 0.211646512,3.92738233 1.04584186,2.57512186 C1.60811163,1.65754047 2.3800186,0.874582326 3.28587907,0.295568372" id="Fill-5" fill="#FCD802" mask="url(#mask-2)"></path>
                        </g>
                        <g id="Group-10" transform="translate(10.716279, 0.817987)">
                            <mask id="mask-4" fill="white">
                                <use xlink:href="#path-3"></use>
                            </mask>
                            <g id="Clip-9"></g>
                            <path d="M0.0619869767,0.208900465 C0.241819535,0.29396093 0.405242791,0.416528372 0.56900093,0.531058605 C1.44539163,1.16700279 2.17476837,2.00253767 2.68144744,2.95930047 C3.35858233,4.23152372 3.63653581,5.71606326 3.45335442,7.1470214 C2.58031256,6.79204465 1.8572986,6.12328186 1.35363349,5.33530047 C0.771605581,4.42441674 0.441410233,3.37790512 0.248517209,2.32000744 C0.124275349,1.6234493 0.0619869767,0.915170233 0.0619869767,0.208900465" id="Fill-8" fill="#FCD802" mask="url(#mask-4)"></path>
                        </g>
                        <path d="M3.48865116,6.26272744 C3.52448372,6.15154605 3.55395349,6.03701581 3.62126512,5.9405693 C3.74383256,6.28081116 3.86137674,6.62406698 4.02814884,6.94622512 C4.23443721,7.35344372 4.48459535,7.73922977 4.78364651,8.08416 C4.84894884,8.16118326 4.93099535,8.22648558 4.97988837,8.3165693 C4.90152558,8.52419721 4.77728372,8.71072744 4.66911628,8.90362047 C4.01676279,9.98596465 3.17955349,10.9835833 2.11026977,11.6751181 C2.01549767,11.7340577 1.92373953,11.8027088 1.81423256,11.8355274 C1.64243721,11.678467 1.51015814,11.4788763 1.36783256,11.2956949 C1.01151628,10.8117879 0.72184186,10.278653 0.496130233,9.72274605 C0.47335814,9.65911814 0.455274419,9.59515535 0.4392,9.52985302 C1.3155907,9.20602047 2.0643907,8.58782512 2.63168372,7.85376 C2.99972093,7.37286698 3.28604651,6.83169488 3.48865116,6.26272744" id="Fill-11" fill="#FCD802"></path>
                        <path d="M7.01571349,6.30686512 C7.04685767,6.18764651 7.03681116,6.0500093 7.11048558,5.9472 C7.18750884,6.0500093 7.17444837,6.18764651 7.20693209,6.30853953 C7.4393414,7.50541395 7.79900651,8.6811907 8.27320186,9.8043907 C8.82274605,11.0963721 9.55513674,12.3290791 10.562467,13.32 C9.49954605,13.9184372 8.2765507,14.2258605 7.05489488,14.2128 C5.92030884,14.209786 4.78873674,13.921786 3.78475535,13.392 C3.75193674,13.3658791 3.6521414,13.3397581 3.69299721,13.2875163 C4.6805693,12.3096558 5.39688558,11.0946977 5.94140651,9.82582326 C6.42229953,8.69425116 6.78196465,7.51211163 7.01571349,6.30686512" id="Fill-13" fill="#FCD802"></path>
                        <path d="M10.4675609,6.31342884 C10.51344,6.1908614 10.5429098,6.06159628 10.6082121,5.94539163 C10.6701656,6.03547535 10.6932726,6.14498233 10.7291051,6.24645209 C11.0726958,7.22598698 11.6744819,8.1204614 12.4822214,8.77281488 C12.8713563,9.09162419 13.3093842,9.35819163 13.7869284,9.53132651 C13.7313377,9.73895442 13.6365656,9.93385674 13.5481563,10.1284242 C13.2963237,10.6628986 12.9791888,11.1665637 12.5997656,11.6226753 C12.540826,11.6946753 12.4852353,11.776387 12.4102214,11.8353265 C12.3054028,11.8058567 12.2203423,11.7405544 12.1322679,11.6849637 C11.3211795,11.1682381 10.6410307,10.4666567 10.0750772,9.69341023 C9.78071442,9.28954047 9.51247256,8.86256372 9.28374698,8.41783814 C9.26398884,8.37195907 9.2214586,8.30833116 9.27403535,8.26914977 C9.8038214,7.71156837 10.2026679,7.03443349 10.4675609,6.31342884" id="Fill-15" fill="#FCD802"></path>
                    </g>
                </g>
            </g>
        </g>
    </g>
</svg>