<?xml version="1.0" encoding="UTF-8"?>
<svg width="24px" height="24px" viewBox="0 0 24 24" version="1.1" xmlns="http://www.w3.org/2000/svg" xmlns:xlink="http://www.w3.org/1999/xlink">
    <!-- Generator: sketchtool 55.2 (78181) - https://sketchapp.com -->
    <title>30C145B9-1E64-4C0E-B121-C35C8DB35645</title>
    <desc>Created with sketchtool.</desc>
    <defs>
        <polygon id="path-1" points="0 0.0395333333 14.9594148 0.0395333333 14.9594148 14.6666667 0 14.6666667"></polygon>
    </defs>
    <g id="&gt;DSL---DMS" stroke="none" stroke-width="1" fill="none" fill-rule="evenodd">
        <g id="DSL-Mobile---Debt-Management-01.02.03---Payment-Method---QR-How-to" transform="translate(-96.000000, -398.000000)">
            <g id="Group-2" transform="translate(56.000000, 398.000000)">
                <g id="4" transform="translate(40.000000, 0.000000)">
                    <g id="cate-Copy-51" fill-rule="nonzero">
                        <circle id="Oval" fill="#FFFFFF" cx="12" cy="12" r="12"></circle>
                        <path d="M12,24 C5.372583,24 0,18.627417 0,12 C0,5.372583 5.372583,0 12,0 C18.627417,0 24,5.372583 24,12 C24,18.627417 18.627417,24 12,24 Z M12,23.55 C18.3788889,23.55 23.55,18.3788889 23.55,12 C23.55,5.62111114 18.3788889,0.45 12,0.45 C5.62111114,0.45 0.45,5.62111114 0.45,12 C0.45,18.3788889 5.62111114,23.55 12,23.55 Z" id="cate" fill="#F2F2F2"></path>
                    </g>
                    <circle id="Oval-2" fill="#02AA50" fill-rule="nonzero" cx="12" cy="12" r="12"></circle>
                    <g id="Page-1" transform="translate(4.500000, 4.500000)">
                        <path d="M14.4263864,7.52588333 C14.4263864,11.25155 11.3382614,14.2713833 7.52792045,14.2713833 C3.71809091,14.2713833 0.629625,11.25155 0.629625,7.52588333 C0.629625,3.80055 3.71809091,0.780383333 7.52792045,0.780383333 C11.3382614,0.780383333 14.4263864,3.80055 14.4263864,7.52588333" id="Fill-1" fill="#FEFEFE"></path>
                        <path d="M11.0059773,11.0171 C10.6846705,10.8582667 10.3521136,10.6936 9.8445,10.6936 C9.396375,10.6936 9.03705682,10.8549333 8.69018182,11.0116 C8.32592045,11.1756 7.94870455,11.3452667 7.44671591,11.3452667 C7.00523864,11.3452667 6.67131818,11.1939333 6.31813636,11.0341 C5.95285227,10.8682667 5.575125,10.6967667 5.06836364,10.6967667 C4.62023864,10.6967667 4.25972727,10.8559333 3.91114773,11.0092667 C3.54518182,11.1707667 3.16643182,11.3377667 2.66410227,11.3377667 C2.637,11.3377667 2.61075,11.3364333 2.58518182,11.3361 C2.63631818,11.3979333 2.68898864,11.4597667 2.74251136,11.5201 C3.24569318,11.5041 3.62376136,11.3381 3.98870455,11.1772667 C4.33489773,11.0252667 4.66080682,10.8817667 5.06836364,10.8817667 C5.53353409,10.8817667 5.87631818,11.0366 6.23853409,11.2007667 C6.59478409,11.3624333 6.96398864,11.5294333 7.44671591,11.5294333 C7.990125,11.5294333 8.38660227,11.3514333 8.76876136,11.1786 C9.11273864,11.0242667 9.437625,10.8781 9.8445,10.8781 C10.3067727,10.8781 10.6050682,11.0256 10.9204091,11.1817667 C11.2655795,11.3524333 11.6228523,11.5291 12.2075114,11.5307667 C12.2627386,11.4686 12.317625,11.4054333 12.3706364,11.3406 C12.3203523,11.3446 12.2697273,11.3466 12.2165455,11.3466 C11.6714318,11.3466 11.3329091,11.1792667 11.0059773,11.0171" id="Fill-3" fill="#99877D"></path>
                        <path d="M9.84443182,11.0424833 C9.39630682,11.0424833 9.03715909,11.2039833 8.69028409,11.36015 C8.32602273,11.5243167 7.94880682,11.6938167 7.44681818,11.6938167 C7.00534091,11.6938167 6.67142045,11.5424833 6.31823864,11.38265 C5.95295455,11.2169833 5.57505682,11.0459833 5.06829545,11.0459833 C4.62034091,11.0459833 4.25965909,11.2049833 3.91107955,11.3583167 C3.60085227,11.49465 3.28159091,11.63465 2.88579545,11.67465 C2.93931818,11.7303167 2.99369318,11.78565 3.04960227,11.83965 C3.40704545,11.7823167 3.70142045,11.6524833 3.98863636,11.5264833 C4.335,11.3734833 4.66090909,11.2299833 5.06829545,11.2299833 C5.53346591,11.2299833 5.87642045,11.3853167 6.23863636,11.54965 C6.59488636,11.7114833 6.96409091,11.8784833 7.44681818,11.8784833 C7.99005682,11.8784833 8.38653409,11.6999833 8.76869318,11.5278167 C9.11267045,11.3728167 9.43755682,11.2269833 9.84443182,11.2269833 C10.306875,11.2269833 10.6051705,11.3744833 10.9203409,11.5308167 C11.1983523,11.6678167 11.4840341,11.80915 11.8895455,11.8594833 C11.9475,11.8044833 12.0040909,11.7478167 12.0589773,11.6899833 C11.6042045,11.6613167 11.3002841,11.5114833 11.0059091,11.3659833 C10.6847727,11.20715 10.3522159,11.0424833 9.84443182,11.0424833" id="Fill-5" fill="#99877D"></path>
                        <path d="M9.84443182,11.3911167 C9.39630682,11.3911167 9.03715909,11.55295 8.69028409,11.70945 C8.32602273,11.8732833 7.94880682,12.04245 7.44681818,12.04245 C7.00534091,12.04245 6.67142045,11.89145 6.31823864,11.7312833 C5.95295455,11.56595 5.57505682,11.3946167 5.06829545,11.3946167 C4.62034091,11.3946167 4.25965909,11.5536167 3.91107955,11.70745 C3.684375,11.8067833 3.45306818,11.9086167 3.18971591,11.9721167 C3.24460227,12.02195 3.29982955,12.0707833 3.35590909,12.1192833 C3.58329545,12.0532833 3.78767045,11.9637833 3.98863636,11.8747833 C4.335,11.7227833 4.66090909,11.57895 5.06829545,11.57895 C5.53346591,11.57895 5.87642045,11.7346167 6.23863636,11.8986167 C6.59488636,12.0597833 6.96409091,12.2271167 7.44681818,12.2271167 C7.99005682,12.2271167 8.38653409,12.0486167 8.76869318,11.87645 C9.11267045,11.7217833 9.43755682,11.5756167 9.84443182,11.5756167 C10.306875,11.5756167 10.6051705,11.72345 10.9203409,11.8791167 C11.1197727,11.97795 11.3232955,12.07795 11.5716477,12.14595 C11.6296023,12.09745 11.6872159,12.04745 11.7424432,11.99695 C11.4525,11.93545 11.2266477,11.8237833 11.0059091,11.7146167 C10.6847727,11.5557833 10.3522159,11.3911167 9.84443182,11.3911167" id="Fill-7" fill="#99877D"></path>
                        <path d="M9.84443182,11.7404 C9.39630682,11.7404 9.03715909,11.9019 8.69028409,12.0584 C8.32602273,12.2222333 7.94880682,12.3917333 7.44681818,12.3917333 C7.00534091,12.3917333 6.67142045,12.2407333 6.31823864,12.0805667 C5.95295455,11.9149 5.57505682,11.7437333 5.06829545,11.7437333 C4.62034091,11.7437333 4.25965909,11.9025667 3.91107955,12.0562333 C3.774375,12.1160667 3.63579545,12.1772333 3.49039773,12.2297333 C3.54630682,12.2752333 3.60357955,12.3195667 3.661875,12.3627333 C3.77403409,12.3185667 3.88210227,12.2714 3.98863636,12.2237333 C4.335,12.0717333 4.66090909,11.9279 5.06829545,11.9279 C5.53346591,11.9279 5.87642045,12.0832333 6.23863636,12.2475667 C6.59488636,12.4090667 6.96409091,12.5760667 7.44681818,12.5760667 C7.99005682,12.5760667 8.38653409,12.3979 8.76869318,12.2257333 C9.11267045,12.0707333 9.43755682,11.9245667 9.84443182,11.9245667 C10.306875,11.9245667 10.6051705,12.0720667 10.9203409,12.2284 C11.0313068,12.2830667 11.1434659,12.3384 11.2632955,12.3885667 C11.3219318,12.3452333 11.3788636,12.3015667 11.4361364,12.2567333 C11.2813636,12.1997333 11.1421023,12.1314 11.0059091,12.0642333 C10.6847727,11.9047333 10.3522159,11.7404 9.84443182,11.7404" id="Fill-9" fill="#99877D"></path>
                        <path d="M9.84443182,12.08935 C9.39630682,12.08935 9.03715909,12.25085 8.69028409,12.4070167 C8.32602273,12.5711833 7.94880682,12.7406833 7.44681818,12.7406833 C7.00534091,12.7406833 6.67142045,12.58935 6.31823864,12.4295167 C5.95295455,12.2631833 5.57505682,12.09285 5.06829545,12.09285 C4.62034091,12.09285 4.25965909,12.2515167 3.91107955,12.4045167 C3.87153409,12.42235 3.83198864,12.4400167 3.79125,12.4571833 C3.85056818,12.4991833 3.91022727,12.5405167 3.97073864,12.58085 C3.97704545,12.57835 3.98267045,12.5756833 3.98863636,12.5726833 C4.335,12.4206833 4.66090909,12.2771833 5.06829545,12.2771833 C5.53346591,12.2771833 5.87642045,12.4321833 6.23863636,12.5961833 C6.59488636,12.7580167 6.96409091,12.9246833 7.44681818,12.9246833 C7.99005682,12.9246833 8.38653409,12.7461833 8.76869318,12.5746833 C9.11267045,12.4196833 9.43755682,12.27335 9.84443182,12.27335 C10.306875,12.27335 10.6051705,12.4210167 10.9203409,12.5770167 C10.9344886,12.5841833 10.9484659,12.5910167 10.9624432,12.59785 C11.0215909,12.5586833 11.0809091,12.5190167 11.1388636,12.4780167 C11.0945455,12.4565167 11.0492045,12.4340167 11.0059091,12.41285 C10.6847727,12.2536833 10.3522159,12.08935 9.84443182,12.08935" id="Fill-11" fill="#99877D"></path>
                        <path d="M8.69019886,12.7560167 C8.3259375,12.9200167 7.94872159,13.0890167 7.44673295,13.0890167 C7.00525568,13.0890167 6.67133523,12.9386833 6.31815341,12.7781833 C5.95286932,12.6125167 5.57514205,12.4411833 5.06838068,12.4411833 C4.70411932,12.4411833 4.39713068,12.54635 4.10821023,12.6681833 C4.17315341,12.7091833 4.24014205,12.7481833 4.30696023,12.7870167 C4.54440341,12.6941833 4.78713068,12.6255167 5.06838068,12.6255167 C5.53338068,12.6255167 5.87633523,12.7806833 6.23855114,12.9451833 C6.59480114,13.1066833 6.96400568,13.2735167 7.44673295,13.2735167 C7.99014205,13.2735167 8.38661932,13.0955167 8.76877841,12.92335 C9.11275568,12.7686833 9.43764205,12.6221833 9.84434659,12.6221833 C10.1700852,12.6221833 10.4143466,12.69585 10.641392,12.7941833 C10.7063352,12.75635 10.7709375,12.7181833 10.834517,12.6785167 C10.5624716,12.5500167 10.262983,12.43835 9.84434659,12.43835 C9.39639205,12.43835 9.03707386,12.5995167 8.69019886,12.7560167" id="Fill-13" fill="#99877D"></path>
                        <g id="Group-17" transform="translate(0.000000, 0.127100)">
                            <mask id="mask-2" fill="white">
                                <use xlink:href="#path-1"></use>
                            </mask>
                            <g id="Clip-16"></g>
                            <path d="M7.48003977,13.4997 C4.00839205,13.4997 1.1941875,10.7477 1.1941875,7.35286667 C1.1941875,3.95903333 4.00839205,1.20753333 7.48003977,1.20753333 C10.9516875,1.20753333 13.7652102,3.95903333 13.7652102,7.35286667 C13.7652102,10.7477 10.9516875,13.4997 7.48003977,13.4997 M7.48003977,0.0395333333 C3.3485625,0.0395333333 -1.70454545e-05,3.31453333 -1.70454545e-05,7.35286667 C-1.70454545e-05,11.3922 3.3485625,14.6667 7.48003977,14.6667 C11.6104943,14.6667 14.9594148,11.3922 14.9594148,7.35286667 C14.9594148,3.31453333 11.6104943,0.0395333333 7.48003977,0.0395333333" id="Fill-15" fill="#EC1C2D" mask="url(#mask-2)"></path>
                        </g>
                        <path d="M10.9776818,5.66683333 C10.932,5.8935 10.6937045,6.1345 10.5631364,6.2365 C10.2702955,6.46633333 8.33529545,7.623 8.11728409,7.89016667 C7.89893182,8.15733333 7.86194318,8.54966667 7.86194318,8.85166667 L7.86092045,11.0753333 L8.16245455,11.0753333 C8.16245455,10.8781667 8.16177273,10.549 8.16177273,10.4968333 C8.16023864,10.2973333 8.27563636,9.99166667 8.51376136,9.7495 C8.91432955,9.34033333 9.83870455,8.82966667 10.4443295,8.39833333 C10.9517727,8.0365 10.9833068,7.54333333 10.9833068,7.11666667 L10.9833068,5.59616667 L10.9776818,5.66683333 Z" id="Fill-18" fill="#31B456"></path>
                        <path d="M7.86289773,7.75375 C8.07767045,7.49125 10.0725,6.29991667 10.3597159,6.07241667 C10.6464205,5.84491667 10.98,5.49425 10.98,5.05658333 L10.98,2.56625 C10.98,2.91658333 10.7798864,3.18508333 10.5199432,3.51508333 C10.2259091,3.89108333 8.88392045,4.60141667 8.22085227,5.05658333 C7.55829545,5.51191667 7.32818182,5.96725 7.32818182,6.52791667 L7.32818182,11.0754167 L7.62613636,11.0754167 L7.62613636,8.69975 C7.62613636,8.40158333 7.64778409,8.01675 7.86289773,7.75375" id="Fill-20" fill="#31B456"></path>
                        <path d="M6.34810227,5.1792 C5.73923864,4.72386667 4.49747727,3.7427 4.35361364,3.5502 C4.21077273,3.35753333 3.88776136,3.00736667 3.88776136,2.5867 L3.88776136,4.8992 C3.88776136,5.23153333 4.04935227,5.8272 4.64048864,6.24736667 C5.23111364,6.66786667 6.06173864,7.2807 6.31213636,7.5262 C6.56321591,7.7717 6.79315909,8.21203333 6.79315909,8.84303333 L6.79315909,11.0753667 L7.08889773,11.0753667 L7.08889773,6.6272 C7.08889773,5.9087 6.95696591,5.63453333 6.34810227,5.1792" id="Fill-22" fill="#31B456"></path>
                    </g>
                </g>
            </g>
        </g>
    </g>
</svg>