<?xml version="1.0" encoding="UTF-8"?>
<svg width="16px" height="14px" viewBox="0 0 16 14" version="1.1" xmlns="http://www.w3.org/2000/svg" xmlns:xlink="http://www.w3.org/1999/xlink">
    <!-- Generator: sketchtool 55.2 (78181) - https://sketchapp.com -->
    <title>D9DAB5F7-84D2-4593-8425-EE00DE6C7358</title>
    <desc>Created with sketchtool.</desc>
    <defs>
        <path d="M10.1140893,12.9326681 C9.37730135,13.1997782 8.64051339,13.3333333 7.90372542,13.3333333 C5.15751574,13.3333333 2.54526751,11.5971171 1.60753737,8.85923778 C1.47357593,8.52535005 1.6745181,8.12468478 2.00942172,7.99112969 C2.34432534,7.8575746 2.74620968,8.05790723 2.88017113,8.39179496 C3.88488199,11.1964519 6.89901456,12.6655579 9.71220497,11.6638947 C12.5253954,10.6622315 13.9989713,7.65724196 12.9942604,4.85258505 C12.5253954,3.51703413 11.5206845,2.44859341 10.2480508,1.78081795 C8.97541701,1.17982004 7.50184108,1.11304249 6.1622266,1.58048531 C5.42543864,1.8475955 4.68865067,2.24826077 4.15280488,2.84925868 L2.21036389,4.65225241 L4.55468923,4.65225241 C4.95657357,4.65225241 5.22449647,4.91936259 5.22449647,5.32002786 C5.22449647,5.72069314 4.95657357,5.98780332 4.55468923,5.98780332 L0.535845791,5.98780332 C0.535845791,5.98780332 0.535845791,5.98780332 0.535845791,5.98780332 C0.468865067,5.98780332 0.401884344,5.98780332 0.401884344,5.98780332 C0.401884344,5.98780332 0.33490362,5.98780332 0.33490362,5.98780332 C0.33490362,5.98780332 0.267922896,5.92102577 0.267922896,5.92102577 C0.200942172,5.92102577 0.200942172,5.85424823 0.133961448,5.85424823 C0.133961448,5.85424823 0.133961448,5.85424823 0.133961448,5.85424823 C0.133961448,5.85424823 0.133961448,5.78747068 0.0669807239,5.78747068 C0.0669807239,5.72069314 0,5.72069314 0,5.65391559 C0,5.58713805 0,5.5203605 0,5.5203605 C0,5.5203605 0,5.45358296 0,5.45358296 L0,1.31337513 C0,0.912709857 0.267922896,0.645599675 0.669807239,0.645599675 C1.07169158,0.645599675 1.33961448,0.912709857 1.33961448,1.31337513 L1.33961448,3.78414432 L3.3490362,1.91437304 C4.01884344,1.24659758 4.88959285,0.71237722 5.82732298,0.378489492 C7.50184108,-0.222508418 9.31032063,-0.0889533266 10.917858,0.645599675 C12.5253954,1.44693022 13.7310484,2.78248113 14.3338749,4.45191977 C15.4725472,7.92435214 13.597087,11.7306722 10.1140893,12.9326681 Z" id="path-1"></path>
    </defs>
    <g id="Menu-DSL" stroke="none" stroke-width="1" fill="none" fill-rule="evenodd">
        <g id="Component" transform="translate(-530.000000, -754.000000)">
            <g id="icon-/-rotate-ccw" transform="translate(530.666667, 754.333333)">
                <mask id="mask-2" fill="white">
                    <use xlink:href="#path-1"></use>
                </mask>
                <use id="Mask" fill="#000000" fill-rule="nonzero" xlink:href="#path-1"></use>
                <g id="Color/Fill/Black" mask="url(#mask-2)" fill="#000000">
                    <g transform="translate(-1.000000, -2.000000)">
                        <rect x="0" y="1" width="16" height="16"></rect>
                    </g>
                </g>
            </g>
        </g>
    </g>
</svg>