<?xml version="1.0" encoding="UTF-8"?>
<svg width="24px" height="24px" viewBox="0 0 24 24" version="1.1" xmlns="http://www.w3.org/2000/svg" xmlns:xlink="http://www.w3.org/1999/xlink">
    <!-- Generator: sketchtool 55.2 (78181) - https://sketchapp.com -->
    <title>8C1DF736-CF66-41CB-87B1-444896B09EBA</title>
    <desc>Created with sketchtool.</desc>
    <g id="&gt;DSL---DMS" stroke="none" stroke-width="1" fill="none" fill-rule="evenodd">
        <g id="DSL-Mobile---Debt-Management-01.02.03---Payment-Method---QR-How-to" transform="translate(-56.000000, -398.000000)">
            <g id="Group-2" transform="translate(56.000000, 398.000000)">
                <g id="14">
                    <g id="cate-Copy-58" fill-rule="nonzero">
                        <circle id="Oval" fill="#FFFFFF" cx="12" cy="12" r="12"></circle>
                        <path d="M12,24 C5.372583,24 0,18.627417 0,12 C0,5.372583 5.372583,0 12,0 C18.627417,0 24,5.372583 24,12 C24,18.627417 18.627417,24 12,24 Z M12,23.55 C18.3788889,23.55 23.55,18.3788889 23.55,12 C23.55,5.62111114 18.3788889,0.45 12,0.45 C5.62111114,0.45 0.45,5.62111114 0.45,12 C0.45,18.3788889 5.62111114,23.55 12,23.55 Z" id="cate" fill="#F2F2F2"></path>
                    </g>
                    <g id="idp_scb">
                        <rect id="Rectangle-2" fill="#4C1C7E" x="0" y="0" width="24" height="24" rx="12"></rect>
                        <path d="M17.8285714,15.970245 L16.2311051,9.70977082 L12.0004076,5.87142857 L7.76848731,9.70977082 L6.17142857,15.970245 L9.19393764,17.3966615 L11.5821886,17.3966615 L11.5821886,15.2570368 C11.5821886,15.2570368 7.14645779,17.6011934 8.30450881,12.3494986 C8.68848771,10.6070986 10.7286304,8.28172134 11.8944262,7.63709866 C11.9307044,7.61627805 11.9657598,7.59790691 12.0004076,7.58116877 L12.0004076,7.58116877 C13.1437843,8.13638526 15.2984684,10.5528017 15.6958988,12.3494986 C16.8543574,17.6011934 12.4190343,15.2570368 12.4190343,15.2570368 L12.4190343,17.3966615 L14.8072852,17.3966615 L17.8285714,15.970245 Z" id="Fill-102" fill="#FFA900"></path>
                    </g>
                </g>
            </g>
        </g>
    </g>
</svg>