<?xml version="1.0" encoding="UTF-8"?>
<svg width="26px" height="26px" viewBox="0 0 26 26" version="1.1" xmlns="http://www.w3.org/2000/svg" xmlns:xlink="http://www.w3.org/1999/xlink">
    <!-- Generator: sketchtool 55.2 (78181) - https://sketchapp.com -->
    <title>28192732-9E18-44A9-AF1B-0440D5232DB2</title>
    <desc>Created with sketchtool.</desc>
    <g id="&gt;DSL---DMS" stroke="none" stroke-width="1" fill="none" fill-rule="evenodd">
        <g id="DSL-Mobile---Debt-Management-01.02.03---Payment-Method---QR-How-to" transform="translate(-255.000000, -397.000000)">
            <g id="Group-2" transform="translate(56.000000, 398.000000)">
                <g id="11" transform="translate(200.000000, 0.000000)">
                    <g id="cate-Copy-57" fill="#FFFFFF" fill-rule="nonzero" stroke="#E6E8F2" stroke-width="0.5">
                        <circle id="Oval" cx="12" cy="12" r="12"></circle>
                    </g>
                    <g id="Group-9" transform="translate(3.000000, 7.050000)" fill="#007AC7">
                        <path d="M5.75955616,2.70747123 L5.75955616,8.61674795 L7.0543726,8.61674795 L7.0543726,4.47018904 L7.07454247,4.47018904 L8.4822411,8.61674795 L9.48259726,8.61674795 L10.9064712,4.46614521 L10.9064712,8.61674795 L12.2053315,8.61674795 L12.2053315,2.70747123 L10.333726,2.70747123 L9.0268274,6.76935616 L9.01070137,6.76935616 L7.63116164,2.70747123 L5.75955616,2.70747123 Z M11.2977863,0.049290411 C10.7801753,0.049290411 10.3619342,0.467531507 10.3619342,0.985093151 C10.3619342,1.50349315 10.7801753,1.92493973 11.2977863,1.92493973 C11.8160384,1.92493973 12.2335397,1.50349315 12.2335397,0.985093151 C12.2335397,0.467531507 11.8160384,0.049290411 11.2977863,0.049290411 L11.2977863,0.049290411 Z M6.66715068,0.049290411 C6.15003288,0.049290411 5.73134795,0.467531507 5.73134795,0.985093151 C5.73134795,1.50349315 6.15003288,1.92493973 6.66715068,1.92493973 C7.18456438,1.92493973 7.60295342,1.50349315 7.60295342,0.985093151 C7.60295342,0.467531507 7.18456438,0.049290411 6.66715068,0.049290411 L6.66715068,0.049290411 Z" id="Fill-1"></path>
                        <polygon id="Fill-4" points="0 3.80044603 0 2.70782137 4.88929315 2.70782137 4.88929315 3.80044603 3.09397808 3.80044603 3.09397808 8.61675288 1.79561096 8.61675288 1.79561096 3.80044603"></polygon>
                        <path d="M15.8069737,7.60752986 C15.9302614,7.60752986 16.0480751,7.59495452 16.1615984,7.57029699 C16.274086,7.54416 16.3738011,7.50352438 16.4588203,7.44538192 C16.5461079,7.38664767 16.6132751,7.30759562 16.6653518,7.20886685 C16.7155545,7.10900384 16.7400641,6.98182027 16.7400641,6.82534356 C16.7400641,6.52264767 16.6572641,6.30502027 16.4915655,6.17512438 C16.3258668,6.0445874 16.1051819,5.97973808 15.8323216,5.97973808 L14.4539162,5.97973808 L14.4539162,7.60752986 L15.8069737,7.60752986 L15.8069737,7.60752986 Z M15.7367984,5.09650521 C15.9630066,5.09650521 16.1473956,5.04260384 16.2926778,4.93228603 C16.4385025,4.82211616 16.5112422,4.64300384 16.5112422,4.39337096 C16.5112422,4.25558466 16.4867326,4.14423123 16.4385025,4.05487233 C16.3897299,3.96679562 16.3258668,3.89805041 16.2447436,3.84848877 C16.1648532,3.7975463 16.0704641,3.76366685 15.9668532,3.74477918 C15.8610723,3.72574356 15.7524805,3.71622575 15.6411271,3.71622575 L14.4539162,3.71622575 L14.4539162,5.09650521 L15.7367984,5.09650521 Z M15.897023,2.70783123 C16.1684038,2.70783123 16.4176915,2.73086137 16.6424203,2.78057096 C16.8681847,2.83171068 17.0613025,2.91239014 17.2224641,3.0251737 C17.3821956,3.13716822 17.5064696,3.28817096 17.5951874,3.47581479 C17.6832641,3.66311342 17.7281408,3.89592986 17.7281408,4.17022027 C17.7281408,4.46842849 17.6631436,4.71672986 17.5316203,4.9145326 C17.4022175,5.11199014 17.2066833,5.27640658 16.9509353,5.40225863 C17.3034888,5.50848329 17.566486,5.69139288 17.7379545,5.95261479 C17.9121847,6.21482301 18.0000148,6.53265863 18.0000148,6.90084493 C18.0000148,7.20028603 17.9429079,7.45849973 17.8304203,7.67657096 C17.7182778,7.89395178 17.566486,8.0727189 17.3772148,8.20971616 C17.1873025,8.34765041 16.9706121,8.45042301 16.7257134,8.51660384 C16.4838723,8.58337644 16.2333025,8.61661479 15.974349,8.61661479 L13.1962833,8.61661479 L13.1962833,2.70783123 L15.897023,2.70783123 Z" id="Fill-6"></path>
                    </g>
                </g>
            </g>
        </g>
    </g>
</svg>