<svg xmlns="http://www.w3.org/2000/svg" xmlns:xlink="http://www.w3.org/1999/xlink" width="32" height="32" viewBox="0 0 32 32">
    <defs>
        <path id="3v5hvd5f4a" d="M9.89 14.91C9.456 15.635 8.728 16 8 16c-.364 0-.727-.073-1.09-.29-.365-.22-.583-.437-.8-.8-.22-.365-.074-.8.29-1.02.364-.217.8-.072 1.018.292.073.073.146.218.291.29.364.219.8.073 1.018-.29.218-.364.655-.437 1.018-.291.364.145.364.654.146 1.018zM16 11.635c0 .437-.29.728-.727.728H.727c-.436 0-.727-.291-.727-.728 0-.436.29-.727.727-.727.8 0 1.455-.654 1.455-1.454V5.818C2.182 2.618 4.8 0 8 0c3.2 0 5.818 2.618 5.818 5.818v3.637c0 .8.655 1.454 1.455 1.454.436 0 .727.291.727.727zm-3.273-.727c-.218-.436-.363-.945-.363-1.454V5.818c0-2.4-1.964-4.363-4.364-4.363S3.636 3.418 3.636 5.818v3.637c0 .509-.145 1.018-.363 1.454h9.454z"/>
    </defs>
    <g fill="none" fill-rule="evenodd">
        <g>
            <g transform="translate(-1031 -19) translate(1031 19)">
                <circle cx="16" cy="16" r="16" fill="#F6F7FC"/>
                <g transform="translate(8 8)">
                    <mask id="jslvxq7rqb" fill="#fff">
                        <use xlink:href="#3v5hvd5f4a"/>
                    </mask>
                    <use fill="#000" fill-rule="nonzero" xlink:href="#3v5hvd5f4a"/>
                    <g fill="#1D3DB4" mask="url(#jslvxq7rqb)">
                        <path d="M0 0H16V16H0z"/>
                    </g>
                </g>
            </g>
        </g>
    </g>
</svg>
