<svg xmlns="http://www.w3.org/2000/svg" xmlns:xlink="http://www.w3.org/1999/xlink" width="32" height="32" viewBox="0 0 32 32">
    <defs>
        <path id="m31lejzmca" d="M13.725 8c.52 0 .942.421.942.941v.118c0 .52-.422.941-.942.941H.941C.421 10 0 9.579 0 9.059V8.94C0 8.421.421 8 .941 8h12.784zm0-4c.52 0 .942.421.942.941v.118c0 .52-.422.941-.942.941H.941C.421 6 0 5.579 0 5.059V4.94C0 4.421.421 4 .941 4h12.784zm0-4c.52 0 .942.421.942.941v.118c0 .52-.422.941-.942.941H.941C.421 2 0 1.579 0 1.059V.94C0 .421.421 0 .941 0h12.784z"/>
    </defs>
    <g fill="none" fill-rule="evenodd">
        <g>
            <g transform="translate(-296 -19) translate(296 19)">
                <circle cx="16" cy="16" r="16" fill="#F6F7FC"/>
                <g>
                    <g>
                        <g transform="translate(8 8) translate(.667 2.667)">
                            <mask id="zql5750bxb" fill="#fff">
                                <use xlink:href="#m31lejzmca"/>
                            </mask>
                            <use fill="#000" xlink:href="#m31lejzmca"/>
                            <g fill="#1D3DB4" mask="url(#zql5750bxb)">
                                <path d="M0 0H16V16H0z" transform="translate(-.667 -2.667)"/>
                            </g>
                        </g>
                    </g>
                </g>
            </g>
        </g>
    </g>
</svg>
