<?xml version="1.0" encoding="UTF-8"?>
<svg width="60px" height="60px" viewBox="0 0 60 60" version="1.1" xmlns="http://www.w3.org/2000/svg" xmlns:xlink="http://www.w3.org/1999/xlink">
    <!-- Generator: sketchtool 57.1 (101010) - https://sketch.com -->
    <title>6194B14D-EE11-4BC5-B78D-AB41469455E5</title>
    <desc>Created with sketchtool.</desc>
    <g id="Symbols" stroke="none" stroke-width="1" fill="none" fill-rule="evenodd">
        <g id="Logo/Line" fill-rule="nonzero">
            <g id="Line-icon">
                <path d="M13,0 L47,0 C54.1797017,0 60,5.82029825 60,13 L60,47 C60,54.1797017 54.1797017,60 47,60 L13,60 C5.82029825,60 0,54.1797017 0,47 L0,13 C0,5.82029825 5.82029825,0 13,0 Z" id="Rectangle" fill="#00B900"></path>
                <g id="TYPE_A" transform="translate(8.000000, 9.500000)">
                    <path d="M43.75,17.86 C43.75,8.085 33.95,0.135 21.9,0.135 C9.85,0.135 0.055,8.085 0.055,17.86 C0.055,26.625 7.83,33.965 18.325,35.36 C19.04,35.515 20.005,35.83 20.25,36.44 C20.4243581,37.092783 20.4482925,37.7766242 20.32,38.44 L20,40.275 C19.905,40.825 19.56,42.435 21.89,41.45 C24.22,40.465 34.5,34.045 39.065,28.77 L39.065,28.77 C42.23,25.27 43.75,21.77 43.75,17.86" id="Path" fill="#FFFFFF"></path>
                    <path d="M17.465,13.14 L15.93,13.14 C15.695279,13.14 15.505,13.330279 15.505,13.565 L15.505,23.065 C15.505,23.299721 15.695279,23.49 15.93,23.49 L17.465,23.49 C17.699721,23.49 17.89,23.299721 17.89,23.065 L17.89,13.565 C17.89,13.330279 17.699721,13.14 17.465,13.14" id="Path" fill="#00B900"></path>
                    <path d="M28,13.14 L26.5,13.14 C26.265279,13.14 26.075,13.330279 26.075,13.565 L26.075,19.22 L21.69,13.325 L21.66,13.285 L21.66,13.285 L21.635,13.26 L21.635,13.26 L21.635,13.26 L21.635,13.26 L21.635,13.26 L21.635,13.26 L21.635,13.26 L21.635,13.26 L21.61,13.26 L21.61,13.26 L21.585,13.26 L19.935,13.26 C19.700279,13.26 19.51,13.450279 19.51,13.685 L19.51,23.185 C19.51,23.419721 19.700279,23.61 19.935,23.61 L21.465,23.61 C21.7005434,23.61 21.8922611,23.4205275 21.895,23.185 L21.895,17.43 L26.26,23.325 C26.2875414,23.3684582 26.3253085,23.4045086 26.37,23.43 L26.37,23.43 L26.395,23.43 L26.395,23.43 L26.395,23.43 L26.395,23.43 L26.395,23.43 L26.425,23.43 L26.425,23.43 C26.4468086,23.4565341 26.4720267,23.480071 26.5,23.5 L28,23.5 C28.234721,23.5 28.425,23.309721 28.425,23.075 L28.425,13.575 C28.425,13.340279 28.234721,13.15 28,13.15" id="Path" fill="#00B900"></path>
                    <path d="M13.77,21.125 L9.605,21.125 L9.605,13.565 C9.605,13.330279 9.41472102,13.14 9.18,13.14 L7.65,13.14 C7.41527898,13.14 7.22499987,13.330279 7.22499987,13.565 L7.22499987,23.065 L7.22499987,23.065 C7.22491482,23.1742881 7.26597021,23.2796041 7.34,23.36 L7.34,23.36 L7.34,23.36 C7.42039586,23.4340298 7.52571186,23.4750001 7.635,23.4750001 L13.77,23.4750001 C14.004721,23.4750001 14.195,23.284721 14.195,23.05 L14.195,21.55 C14.195,21.315279 14.004721,21.125 13.77,21.125" id="Path" fill="#00B900"></path>
                    <path d="M36.5,15.5 C36.612717,15.5 36.7208174,15.4552233 36.8005204,15.3755204 C36.8802233,15.2958174 36.925,15.187717 36.925,15.075 L36.925,13.565 C36.925,13.330279 36.734721,13.14 36.5,13.14 L30.35,13.14 C30.2398301,13.1402525 30.134063,13.1832764 30.055,13.26 L30.055,13.26 L30.055,13.26 C29.9773596,13.3384613 29.934176,13.4446209 29.9349884,13.555 L29.9349884,13.555 L29.9349884,23.055 L29.9349884,23.055 C29.934176,23.1653791 29.9773596,23.2715387 30.055,23.35 L30.055,23.35 C30.134063,23.4267236 30.2398301,23.4697475 30.35,23.47 L36.5,23.47 C36.734721,23.47 36.925,23.279721 36.925,23.045 L36.925,21.55 C36.925,21.315279 36.734721,21.125 36.5,21.125 L32.31,21.125 L32.31,19.5 L36.5,19.5 C36.734721,19.5 36.925,19.309721 36.925,19.075 L36.925,17.555 C36.925,17.442283 36.8802233,17.3341826 36.8005204,17.2544796 C36.7208174,17.1747767 36.612717,17.13 36.5,17.13 L32.31,17.13 L32.31,15.5 L36.5,15.5 Z" id="Path" fill="#00B900"></path>
                </g>
            </g>
        </g>
    </g>
</svg>